<?xml version="1.0" encoding="UTF-8" standalone="no"?>
<!-- Svg Vector Icons : http://www.onlinewebfonts.com/icon -->

<svg
   version="1.1"
   x="0px"
   y="0px"
   viewBox="0 0 200 40"
   enable-background="new 0 0 1000 1000"
   xml:space="preserve"
   id="svg8"
   sodipodi:docname="logo.svg"
   inkscape:version="1.1.2 (0a00cf5339, 2022-02-04)"
   width="200"
   height="40"
   xmlns:inkscape="http://www.inkscape.org/namespaces/inkscape"
   xmlns:sodipodi="http://sodipodi.sourceforge.net/DTD/sodipodi-0.dtd"
   xmlns="http://www.w3.org/2000/svg"
   xmlns:svg="http://www.w3.org/2000/svg"><defs
   id="defs12"><rect
     x="5167.0835"
     y="869.43134"
     width="871.27075"
     height="659.32697"
     id="rect64021" /><rect
     x="-551.66626"
     y="-260.5611"
     width="8184.8418"
     height="1793.1998"
     id="rect46640" /><rect
     x="-217.86804"
     y="-148.73763"
     width="108.45642"
     height="91.45842"
     id="rect44378" /><rect
     x="8044.3281"
     y="4815.7666"
     width="22982.77"
     height="2960.5576"
     id="rect70943" /><rect
     x="13695.641"
     y="5689.522"
     width="8242.1787"
     height="3799.5769"
     id="rect60955" /><rect
     x="7661.4917"
     y="4403.0039"
     width="4417.7603"
     height="1372.6062"
     id="rect46841" /></defs><sodipodi:namedview
   id="namedview10"
   pagecolor="#ffffff"
   bordercolor="#666666"
   borderopacity="1.0"
   inkscape:pageshadow="2"
   inkscape:pageopacity="0.0"
   inkscape:pagecheckerboard="0"
   showgrid="false"
   inkscape:zoom="0.11313708"
   inkscape:cx="2138.998"
   inkscape:cy="1034.1437"
   inkscape:window-width="1920"
   inkscape:window-height="1052"
   inkscape:window-x="1920"
   inkscape:window-y="0"
   inkscape:window-maximized="1"
   inkscape:current-layer="g6"
   fit-margin-top="0"
   fit-margin-left="0"
   fit-margin-right="0"
   fit-margin-bottom="0" />
<metadata
   id="metadata2"> Svg Vector Icons : http://www.onlinewebfonts.com/icon </metadata>
<g
   id="g6"
   transform="translate(-131.82248,-24.258483)"><text
     xml:space="preserve"
     style="font-size:13.3333px;line-height:1.25;font-family:Dongle;-inkscape-font-specification:Dongle"
     x="942.94885"
     y="476.33624"
     id="text4609"><tspan
       sodipodi:role="line"
       id="tspan4607"
       x="942.94885"
       y="476.33624" /></text><g
     aria-label="Verified VPNs"
     id="text11169"
     style="font-weight:bold;font-size:933.333px;line-height:0;font-family:Dosis;-inkscape-font-specification:'Dosis Bold';letter-spacing:14.19px;word-spacing:0px;fill:#ffffff;fill-opacity:1"
     inkscape:export-filename="/home/user/Projects/Vepon-Temp/Temp-Files/img/core-img/logo.png"
     inkscape:export-xdpi="11.7212"
     inkscape:export-ydpi="11.7212"><path
       d="m 1404.6792,852.33321 q -26.1333,0 -49.4667,-10.26666 -22.4,-10.26666 -28,-30.79999 L 1146.1459,224.2001 q -1.8666,-6.53333 -1.8666,-9.33333 0,-14.93333 12.1333,-26.13333 12.1333,-11.19999 29.8667,-17.73332 18.6666,-6.53333 35.4666,-6.53333 14.9333,0 26.1333,5.59999 11.2,4.66667 14,18.66666 l 142.8,505.8665 141.8666,-505.8665 q 4.6667,-13.99999 14.9333,-18.66666 11.2,-5.59999 26.1334,-5.59999 16.7999,0 34.5333,6.53333 17.7333,6.53333 29.8666,17.73332 13.0667,11.2 13.0667,26.13333 0,1.86667 -0.9333,4.66666 0,1.86667 -0.9334,4.66667 l -180.1332,587.06646 q -5.6,20.53333 -28.9334,30.79999 -22.4,10.26666 -49.4666,10.26666 z"
       style="line-height:1.45;fill:#ffffff;fill-opacity:1"
       id="path82384" /><path
       d="m 1897.3869,855.13321 q -66.2666,0 -117.6,-23.33332 -50.3999,-24.26666 -79.3333,-67.19998 -28.9333,-43.86665 -28.9333,-100.79996 v -79.33331 q 0,-50.39998 27.0667,-92.39997 28,-42.93332 73.7333,-68.13331 46.6666,-26.13332 103.5999,-26.13332 52.2667,0 95.2,22.39999 43.8667,22.39999 70.9333,61.59998 27.0667,39.19999 27.0667,91.46663 0,40.13332 -13.0667,57.86665 -13.0667,16.79999 -33.6,21.46666 -19.6,3.73333 -41.0666,3.73333 h -189.4666 v 14 q 0,40.13332 29.8666,65.33331 30.8,24.26666 79.3333,24.26666 30.8,0 51.3333,-9.33333 20.5334,-9.33333 35.4667,-17.73333 14.9333,-8.4 28,-8.4 14,0 24.2667,9.33333 10.2666,9.33333 15.8666,22.39999 5.6,12.13333 5.6,21.46666 0,15.86666 -20.5333,34.53332 -19.6,17.73333 -56.9333,30.79999 -36.4,12.13333 -86.8,12.13333 z M 1791.9203,585.39997 h 136.2666 q 15.8667,0 21.4666,-4.66666 6.5334,-5.6 6.5334,-20.53333 0,-21.46666 -12.1333,-38.26665 -11.2,-16.8 -29.8667,-26.13333 -17.7333,-9.33333 -40.1333,-9.33333 -21.4667,0 -40.1333,9.33333 -18.6667,8.4 -30.8,25.2 -11.2,15.86666 -11.2,38.26665 z"
       style="line-height:1.45;fill:#ffffff;fill-opacity:1"
       id="path82386" /><path
       d="m 2213.9755,846.73322 q -25.2,0 -41.9999,-12.13333 -16.8,-12.13333 -16.8,-27.06666 V 440.73336 q 0,-16.8 16.8,-27.06666 16.7999,-10.26666 41.9999,-10.26666 23.3334,0 38.2667,10.26666 15.8667,10.26666 15.8667,27.06666 v 38.26665 q 10.2666,-20.53333 27.0666,-38.26665 17.7333,-18.66666 40.1333,-30.79999 22.4,-12.13333 47.6,-12.13333 h 28.9333 q 17.7334,0 30.8,15.86666 13.0667,14.93333 13.0667,36.39999 0,22.39999 -13.0667,38.26665 -13.0666,14.93333 -30.8,14.93333 h -28.9333 q -26.1333,0 -51.3333,17.73333 -24.2667,16.79999 -40.1333,47.59998 -15.8667,29.86666 -15.8667,72.79997 v 166.13328 q 0,14.93333 -17.7333,27.06666 -17.7333,12.13333 -43.8667,12.13333 z"
       style="line-height:1.45;fill:#ffffff;fill-opacity:1"
       id="path82388" /><path
       d="m 2579.097,304.46674 q -27.0667,0 -46.6667,-17.73333 -19.6,-18.66666 -19.6,-41.06665 0,-24.26666 19.6,-41.06665 19.6,-17.73333 46.6667,-17.73333 28,0 46.6666,17.73333 18.6667,16.79999 18.6667,41.06665 0,22.39999 -18.6667,41.06665 -18.6666,17.73333 -46.6666,17.73333 z m 0,542.26648 q -26.1333,0 -42.9333,-12.13333 -16.8,-12.13333 -16.8,-27.06666 V 440.73336 q 0,-16.8 16.8,-27.06666 16.8,-10.26666 42.9333,-10.26666 25.2,0 42.9333,10.26666 17.7333,10.26666 17.7333,27.06666 v 366.79987 q 0,14.93333 -17.7333,27.06666 -17.7333,12.13333 -42.9333,12.13333 z"
       style="line-height:1.45;fill:#ffffff;fill-opacity:1"
       id="path82390" /><path
       d="m 2806.0858,846.73322 q -25.2,0 -42,-10.26667 -16.8,-11.19999 -16.8,-27.99999 V 349.26672 q 0,-55.06665 27.0666,-101.7333 28,-46.66665 79.3333,-74.66664 52.2667,-27.99999 124.1333,-27.99999 39.2,0 75.6,8.4 37.3333,8.4 60.6666,23.33333 23.3334,14.93332 23.3334,34.53332 0,7.46666 -4.6667,25.19999 -4.6667,16.79999 -14,30.79999 -9.3333,13.99999 -24.2666,13.99999 -11.2,0 -24.2667,-8.39999 -12.1333,-8.4 -33.6,-16.8 -20.5333,-9.33333 -57.8666,-9.33333 -26.1334,0 -46.6667,6.53333 -20.5333,6.53333 -35.4666,18.66666 -14,12.13333 -21.4667,30.79999 -7.4667,17.73333 -7.4667,41.99999 v 58.79998 h 95.2 q 15.8667,0 23.3333,13.99999 8.4,13.06666 8.4,29.86666 0,16.79999 -8.4,30.79999 -7.4666,13.06666 -23.3333,13.06666 h -95.2 v 317.33322 q 0,16.8 -18.6666,27.99999 -17.7334,10.26667 -42.9333,10.26667 z m 314.5332,0 q -26.1333,0 -42.9333,-12.13333 -15.8667,-12.13333 -15.8667,-27.06666 V 440.73336 q 0,-16.8 15.8667,-27.06666 16.8,-10.26666 42.9333,-10.26666 25.2,0 42.9333,10.26666 18.6667,10.26666 18.6667,27.06666 v 366.79987 q 0,14.93333 -18.6667,27.06666 -17.7333,12.13333 -42.9333,12.13333 z"
       style="line-height:1.45;fill:#ffffff;fill-opacity:1"
       id="path82392" /><path
       d="m 3512.0654,855.13321 q -66.2666,0 -117.6,-23.33332 -50.3999,-24.26666 -79.3333,-67.19998 -28.9333,-43.86665 -28.9333,-100.79996 v -79.33331 q 0,-50.39998 27.0667,-92.39997 28,-42.93332 73.7333,-68.13331 46.6666,-26.13332 103.5999,-26.13332 52.2667,0 95.2,22.39999 43.8667,22.39999 70.9333,61.59998 27.0667,39.19999 27.0667,91.46663 0,40.13332 -13.0667,57.86665 -13.0667,16.79999 -33.6,21.46666 -19.6,3.73333 -41.0666,3.73333 h -189.4666 v 14 q 0,40.13332 29.8666,65.33331 30.8,24.26666 79.3333,24.26666 30.8,0 51.3333,-9.33333 20.5334,-9.33333 35.4667,-17.73333 14.9333,-8.4 28,-8.4 14,0 24.2666,9.33333 10.2667,9.33333 15.8667,22.39999 5.6,12.13333 5.6,21.46666 0,15.86666 -20.5333,34.53332 -19.6,17.73333 -56.9333,30.79999 -36.4,12.13333 -86.8,12.13333 z M 3406.5988,585.39997 h 136.2666 q 15.8666,0 21.4666,-4.66666 6.5334,-5.6 6.5334,-20.53333 0,-21.46666 -12.1334,-38.26665 -11.1999,-16.8 -29.8666,-26.13333 -17.7333,-9.33333 -40.1333,-9.33333 -21.4667,0 -40.1333,9.33333 -18.6667,8.4 -30.8,25.2 -11.2,15.86666 -11.2,38.26665 z"
       style="line-height:1.45;fill:#ffffff;fill-opacity:1"
       id="path82394" /><path
       d="m 3917.3209,855.13321 q -43.8667,0 -81.2,-27.06665 -37.3333,-27.06666 -59.7333,-70.93331 -22.4,-43.86665 -22.4,-93.3333 v -76.53331 q 0,-52.26665 22.4,-95.19997 22.4,-42.93332 59.7333,-68.13331 37.3333,-26.13332 83.0667,-26.13332 43.8666,0 74.6666,22.39999 30.8,21.46666 45.7333,48.53332 V 182.20011 q 0,-16.79999 17.7333,-27.06665 17.7334,-10.26667 43.8667,-10.26667 25.2,0 42,10.26667 16.8,10.26666 16.8,27.06665 v 625.33312 q 0,14.93333 -16.8,27.06666 -16.8,12.13333 -42,12.13333 -22.4,0 -38.2667,-12.13333 -15.8666,-12.13333 -15.8666,-27.06666 V 781.3999 q -14,28.93333 -50.4,51.33332 -35.4667,22.39999 -79.3333,22.39999 z m 38.2666,-105.46663 q 24.2667,0 42.9334,-13.06666 18.6666,-13.99999 29.8666,-29.86666 11.2,-16.79999 11.2,-26.13332 v -93.3333 q 0,-26.13333 -13.0667,-44.79999 -12.1333,-18.66666 -31.7333,-28.93332 -18.6666,-10.26666 -38.2666,-10.26666 -22.4,0 -42,13.06666 -18.6667,12.13333 -29.8667,30.79999 -10.2666,18.66666 -10.2666,40.13332 v 76.53331 q 0,21.46665 10.2666,41.06665 11.2,19.59999 29.8667,32.66665 18.6666,12.13333 41.0666,12.13333 z"
       style="line-height:1.45;fill:#ffffff;fill-opacity:1"
       id="path82396" /><path
       d="m 4690.4985,852.33321 q -26.1333,0 -49.4666,-10.26666 -22.4,-10.26666 -28,-30.79999 L 4431.9653,224.2001 q -1.8667,-6.53333 -1.8667,-9.33333 0,-14.93333 12.1334,-26.13333 12.1333,-11.19999 29.8666,-17.73332 18.6667,-6.53333 35.4667,-6.53333 14.9333,0 26.1333,5.59999 11.2,4.66667 14,18.66666 l 142.7999,505.8665 141.8666,-505.8665 q 4.6667,-13.99999 14.9334,-18.66666 11.2,-5.59999 26.1333,-5.59999 16.8,0 34.5333,6.53333 17.7333,6.53333 29.8667,17.73332 13.0666,11.2 13.0666,26.13333 0,1.86667 -0.9333,4.66666 0,1.86667 -0.9333,4.66667 l -180.1333,587.06646 q -5.6,20.53333 -28.9333,30.79999 -22.4,10.26666 -49.4667,10.26666 z"
       style="line-height:1.45;fill:#ffffff;fill-opacity:1"
       id="path82398" /><path
       d="m 5089.2212,846.73322 q -22.4,0 -42,-9.33333 -18.6667,-10.26667 -18.6667,-29.86666 V 202.73344 q 0,-15.86666 13.0667,-27.06666 13.0667,-11.19999 33.6,-11.19999 h 186.6666 q 59.7333,0 107.3333,20.53332 48.5333,20.53333 76.5333,67.19998 28,45.73332 28,122.26662 v 5.6 q 0,76.53331 -28.9333,123.19996 -28.9334,46.66665 -79.3333,68.13331 -49.4667,20.53332 -111.0667,20.53332 h -104.5333 v 215.59993 q 0,19.59999 -18.6666,29.86666 -18.6667,9.33333 -42,9.33333 z m 60.6666,-349.99988 h 104.5333 q 46.6667,0 71.8667,-26.13333 26.1333,-27.06665 26.1333,-81.19997 v -10.26666 q 0,-55.06665 -26.1333,-81.19997 -25.2,-27.06666 -71.8667,-27.06666 h -104.5333 z"
       style="line-height:1.45;fill:#ffffff;fill-opacity:1"
       id="path82400" /><path
       d="m 5623.2769,846.73322 q -22.4,0 -42,-9.33333 -18.6667,-10.26667 -18.6667,-29.86666 V 202.73344 q 0,-19.59999 18.6667,-28.93332 19.6,-9.33333 42,-9.33333 22.3999,0 36.3999,4.66666 14.9334,4.66667 27.0667,18.66666 13.0667,13.06666 27.0667,41.06665 l 180.1332,348.13322 V 202.73344 q 0,-20.53333 18.6667,-28.93332 19.6,-9.33333 42,-9.33333 23.3333,0 42,9.33333 18.6666,8.39999 18.6666,28.93332 v 604.79979 q 0,19.59999 -18.6666,29.86666 -18.6667,9.33333 -42,9.33333 -21.4667,0 -40.1333,-8.4 -17.7334,-8.4 -28.9334,-29.86666 L 5683.9435,433.26669 v 374.26654 q 0,19.59999 -18.6667,29.86666 -18.6666,9.33333 -41.9999,9.33333 z"
       style="line-height:1.45;fill:#ffffff;fill-opacity:1"
       id="path82402" /><path
       d="m 6277.7326,855.13321 q -46.6667,0 -85.8667,-11.19999 -38.2666,-12.13333 -60.6666,-30.79999 -21.4667,-18.66666 -21.4667,-38.26666 0,-10.26666 4.6667,-22.39999 5.6,-12.13333 14,-21.46666 9.3333,-9.33333 21.4666,-9.33333 13.0667,0 27.0667,11.2 14.9333,10.26666 36.4,20.53332 22.4,10.26667 61.6,10.26667 41.9999,0 55.0666,-13.06666 14,-13.06667 14,-27.06666 0,-20.53333 -16.8,-31.73332 -15.8667,-11.2 -41.0666,-17.73333 -25.2,-7.46667 -54.1334,-15.86666 -27.9999,-8.4 -53.1999,-21.46666 -25.2,-14 -41.0667,-37.33332 -15.8667,-24.26666 -15.8667,-62.53331 0,-33.59999 15.8667,-65.33331 15.8667,-31.73333 52.2667,-52.26665 36.3999,-21.46666 98.9333,-21.46666 38.2666,0 71.8666,8.4 34.5333,7.46666 56,21.46665 21.4666,14 21.4666,30.79999 0,8.4 -5.6,22.4 -5.6,13.06666 -15.8666,24.26665 -9.3334,11.2 -23.3333,11.2 -10.2667,0 -25.2,-6.53333 -14,-7.46666 -32.6667,-14 -18.6667,-6.53333 -44.8,-6.53333 -23.3333,0 -37.3333,6.53333 -14,6.53334 -20.5333,15.86667 -6.5334,9.33333 -6.5334,19.59999 0,16.79999 15.8667,26.13332 15.8667,9.33333 41.0667,15.86666 26.1333,6.53334 54.1333,14.93333 28.9333,7.46667 54.1333,22.39999 26.1333,14.93333 42,41.06666 15.8666,25.19999 15.8666,66.26664 0,62.53331 -44.8,99.86663 -43.8666,37.33332 -126.9332,37.33332 z"
       style="line-height:1.45;fill:#ffffff;fill-opacity:1"
       id="path82404" /></g><text
     xml:space="preserve"
     transform="translate(91.7,10)"
     id="text46839"
     style="font-size:13.3333px;line-height:1.25;font-family:Mallanna;-inkscape-font-specification:Mallanna;white-space:pre;shape-inside:url(#rect46841)" /><text
     xml:space="preserve"
     transform="translate(91.7,10)"
     id="text60953"
     style="font-size:13.3333px;line-height:1.25;font-family:Mallanna;-inkscape-font-specification:Mallanna;white-space:pre;shape-inside:url(#rect60955)" /><text
     xml:space="preserve"
     transform="translate(91.7,10)"
     id="text70941"
     style="font-style:normal;font-variant:normal;font-weight:normal;font-stretch:normal;font-size:13.3333px;line-height:1.25;font-family:Dongle;-inkscape-font-specification:Dongle;white-space:pre;shape-inside:url(#rect70943)"><tspan
       x="8044.3281"
       y="4825.0323"
       id="tspan87920"> </tspan></text><text
     xml:space="preserve"
     transform="translate(91.7,10)"
     id="text44376"
     style="font-size:13.3333px;line-height:1.25;font-family:Mallanna;-inkscape-font-specification:Mallanna;letter-spacing:14px;white-space:pre;shape-inside:url(#rect44378)" /><text
     xml:space="preserve"
     transform="translate(91.7,10)"
     id="text46638"
     style="font-size:13.3333px;line-height:1.25;font-family:Mallanna;-inkscape-font-specification:Mallanna;letter-spacing:14px;white-space:pre;shape-inside:url(#rect46640)" /><g
     style="fill:#2ecf83;fill-opacity:1"
     id="g62397"
     transform="matrix(0.8916546,0,0,0.96966325,100.70154,24.258483)"
     inkscape:export-filename="/home/user/Projects/Vepon-Temp/Temp-Files/img/core-img/logo.png"
     inkscape:export-xdpi="11.7212"
     inkscape:export-ydpi="11.7212"><g
       id="g62388"
       style="fill:#2ecf83;fill-opacity:1">
	<path
   d="m 946.23,206.651 c -0.3,-23 -18,-42 -40.899,-44.101 -190.3,-17.8 -345.601,-119.5 -396.8,-156.7 -10.7,-7.8 -25.2,-7.8 -35.9,0 -51.1,37.2 -206.4,138.9 -396.7,156.7 -22.9,2.101 -40.5,21.101 -40.9,44.101 -2.3,150.1 21.8,659.699 444.1,773.1 7.5,2 15.4,2 22.9,0 422.3,-113.3 446.399,-623.001 444.199,-773.1 z"
   id="path62386"
   style="fill:#ffffff;fill-opacity:1" />
</g></g><text
     xml:space="preserve"
     transform="translate(91.7,10)"
     id="text64019"
     style="font-size:13.3333px;line-height:1.25;font-family:Mallanna;-inkscape-font-specification:Mallanna;letter-spacing:14px;white-space:pre;shape-inside:url(#rect64021)" /><path
     d="m 740.10794,281.50173 c 17.34371,11.23504 22.30147,34.40665 11.06607,51.75026 L 508.74748,707.43997 c -6.37966,9.83187 -16.97948,16.11819 -28.66326,16.96948 -0.91564,0.0736 -1.84279,0.10529 -2.74987,0.10529 -10.7209,0 -20.9639,-4.59322 -28.09191,-12.70368 L 327.15413,573.03381 c -13.64852,-15.51948 -12.14263,-39.15879 3.36773,-52.81666 15.54712,-13.65788 39.17673,-12.1237 52.81595,3.37705 l 89.45953,101.68557 215.55971,-332.71862 c 11.25446,-17.34361 34.42624,-22.29223 51.75089,-11.0573 z"
     id="path65084"
     style="fill:#007bff;stroke-width:9.3547;fill-opacity:1"
     inkscape:export-filename="/home/user/Projects/Vepon-Temp/Temp-Files/img/core-img/logo.png"
     inkscape:export-xdpi="11.7212"
     inkscape:export-ydpi="11.7212" /></g>
</svg>
